<mxfile host="drawio-plugin" modified="2022-01-18T10:31:55.828Z" agent="5.0 (Macintosh; Intel Mac OS X 10_14_6) AppleWebKit/537.36 (KHTML, like Gecko) Chrome/89.0.4389.114 Safari/537.36" etag="HrXSFd61otp3wHJnSvwi" version="15.5.4" type="embed" pages="11"><diagram name="1. connexion" id="2cc2dc42-3aac-f2a9-1cec-7a8b7cbee084"><mxGraphModel dx="1405" dy="794" grid="1" gridSize="10" guides="1" tooltips="1" connect="1" arrows="1" fold="1" page="1" pageScale="1" pageWidth="1100" pageHeight="850" background="none" math="0" shadow="0"><root><mxCell id="0"/><mxCell id="1" parent="0"/><mxCell id="15" value="1. connexion" style="strokeWidth=1;shadow=0;dashed=0;align=center;html=1;shape=mxgraph.mockup.containers.window;align=left;verticalAlign=top;spacingLeft=8;strokeColor2=#008cff;strokeColor3=#c4c4c4;fontColor=#666666;mainText=;fontSize=17;labelBackgroundColor=none;aspect=fixed;" parent="1" vertex="1"><mxGeometry x="323.65" y="10" width="404.81" height="720" as="geometry"/></mxCell><mxCell id="16" value="&lt;font style=&quot;font-size: 14px;&quot;&gt;Authentification&lt;/font&gt;" style="strokeWidth=1;shadow=0;dashed=0;align=center;html=1;shape=mxgraph.mockup.forms.anchor;fontSize=14;fontColor=#666666;align=left;resizeWidth=1;spacingLeft=0;" parent="1" vertex="1"><mxGeometry x="406.05" y="130" width="160" height="20" as="geometry"/></mxCell><mxCell id="17" value="" style="shape=line;strokeColor=#ddeeff;strokeWidth=2;html=1;resizeWidth=1;" parent="1" vertex="1"><mxGeometry x="406.05" y="154" width="287.99999999999994" height="10" as="geometry"/></mxCell><mxCell id="18" value="Email :" style="strokeWidth=1;shadow=0;dashed=0;align=center;html=1;shape=mxgraph.mockup.forms.anchor;fontSize=14;fontColor=#666666;align=left;resizeWidth=1;spacingLeft=0;" parent="1" vertex="1"><mxGeometry x="406.05" y="177" width="160" height="20" as="geometry"/></mxCell><mxCell id="19" value="utilisateur@email.com" style="strokeWidth=1;shadow=0;dashed=0;align=center;html=1;shape=mxgraph.mockup.forms.rrect;rSize=0;strokeColor=#999999;fontColor=#666666;align=left;spacingLeft=5;resizeWidth=1;" parent="1" vertex="1"><mxGeometry x="406.05" y="197" width="240" height="25" as="geometry"/></mxCell><mxCell id="20" value="Mot de passe :" style="strokeWidth=1;shadow=0;dashed=0;align=center;html=1;shape=mxgraph.mockup.forms.anchor;fontSize=14;fontColor=#666666;align=left;resizeWidth=1;spacingLeft=0;" parent="1" vertex="1"><mxGeometry x="406.05" y="232" width="160" height="20" as="geometry"/></mxCell><mxCell id="21" value="********" style="strokeWidth=1;shadow=0;dashed=0;align=center;html=1;shape=mxgraph.mockup.forms.rrect;rSize=0;strokeColor=#999999;fontColor=#666666;align=left;spacingLeft=5;resizeWidth=1;" parent="1" vertex="1"><mxGeometry x="406.05" y="252" width="240" height="25" as="geometry"/></mxCell><mxCell id="22" value="&lt;font style=&quot;font-size: 20px&quot;&gt;Se Connecter&lt;/font&gt;" style="strokeWidth=1;shadow=0;dashed=0;align=center;html=1;shape=mxgraph.mockup.forms.rrect;rSize=5;strokeColor=none;fontColor=#ffffff;fillColor=#66bbff;fontSize=16;fontStyle=1;" parent="1" vertex="1"><mxGeometry x="406" y="300" width="240" height="48" as="geometry"/></mxCell><mxCell id="23" value="&lt;font style=&quot;font-size: 20px&quot;&gt;Mot de passe oublié ?&lt;/font&gt;" style="strokeWidth=1;shadow=0;dashed=0;align=center;html=1;shape=mxgraph.mockup.forms.anchor;fontSize=14;fontColor=#9999ff;align=left;spacingLeft=0;fontStyle=4;resizeWidth=1;" parent="1" vertex="1"><mxGeometry x="406.05" y="405" width="240" height="20" as="geometry"/></mxCell><mxCell id="24" value="" style="shape=line;strokeColor=#ddeeff;strokeWidth=2;html=1;resizeWidth=1;" parent="1" vertex="1"><mxGeometry x="406.05" y="430" width="287.99999999999994" height="10" as="geometry"/></mxCell><mxCell id="25" value="Nouvel utilisateur" style="strokeWidth=1;shadow=0;dashed=0;align=center;html=1;shape=mxgraph.mockup.forms.anchor;fontSize=14;fontColor=#666666;align=left;spacingLeft=0;resizeWidth=1;" parent="1" vertex="1"><mxGeometry x="406.05" y="530" width="240" height="20" as="geometry"/></mxCell><mxCell id="26" value="&lt;font style=&quot;font-size: 20px&quot;&gt;Créer un compte&lt;/font&gt;" style="strokeWidth=1;shadow=0;dashed=0;align=center;html=1;shape=mxgraph.mockup.forms.rrect;rSize=5;strokeColor=none;fontColor=#ffffff;fillColor=#66bbff;fontSize=16;fontStyle=1;" parent="1" vertex="1"><mxGeometry x="406" y="580" width="240" height="48" as="geometry"/></mxCell><mxCell id="9K-57Y8DtEjR14jrUzWZ-26" value="" style="shape=line;strokeColor=#ddeeff;strokeWidth=2;html=1;resizeWidth=1;" parent="1" vertex="1"><mxGeometry x="406" y="550" width="287.99999999999994" height="10" as="geometry"/></mxCell></root></mxGraphModel></diagram><diagram name="1.1 connexion mot de passe oublié" id="4iPZAgOdz_aABJl1WM38"><mxGraphModel dx="1405" dy="794" grid="1" gridSize="10" guides="1" tooltips="1" connect="1" arrows="1" fold="1" page="1" pageScale="1" pageWidth="1100" pageHeight="850" background="none" math="0" shadow="0"><root><mxCell id="VU6T0Y7Y-3jl6aKl-pnd-0"/><mxCell id="VU6T0Y7Y-3jl6aKl-pnd-1" parent="VU6T0Y7Y-3jl6aKl-pnd-0"/><mxCell id="mNFM3v5KTQr4_x_lq6xK-0" value="1.1 connexion mot de passe oublié" style="strokeWidth=1;shadow=0;dashed=0;align=center;html=1;shape=mxgraph.mockup.containers.window;align=left;verticalAlign=top;spacingLeft=8;strokeColor2=#008cff;strokeColor3=#c4c4c4;fontColor=#666666;mainText=;fontSize=17;labelBackgroundColor=none;aspect=fixed;" vertex="1" parent="VU6T0Y7Y-3jl6aKl-pnd-1"><mxGeometry x="323.65" y="10" width="404.81" height="720" as="geometry"/></mxCell><mxCell id="VU6T0Y7Y-3jl6aKl-pnd-3" value="Réinitialisation de votre mot passe" style="strokeWidth=1;shadow=0;dashed=0;align=center;html=1;shape=mxgraph.mockup.forms.anchor;fontSize=14;fontColor=#666666;align=left;resizeWidth=1;spacingLeft=0;" parent="VU6T0Y7Y-3jl6aKl-pnd-1" vertex="1"><mxGeometry x="406.05" y="130" width="160" height="20" as="geometry"/></mxCell><mxCell id="VU6T0Y7Y-3jl6aKl-pnd-4" value="" style="shape=line;strokeColor=#ddeeff;strokeWidth=2;html=1;resizeWidth=1;" parent="VU6T0Y7Y-3jl6aKl-pnd-1" vertex="1"><mxGeometry x="406.05" y="154" width="287.99999999999994" height="10" as="geometry"/></mxCell><mxCell id="VU6T0Y7Y-3jl6aKl-pnd-5" value="Email :" style="strokeWidth=1;shadow=0;dashed=0;align=center;html=1;shape=mxgraph.mockup.forms.anchor;fontSize=14;fontColor=#666666;align=left;resizeWidth=1;spacingLeft=0;" parent="VU6T0Y7Y-3jl6aKl-pnd-1" vertex="1"><mxGeometry x="406.05" y="177" width="160" height="20" as="geometry"/></mxCell><mxCell id="VU6T0Y7Y-3jl6aKl-pnd-6" value="utilisateur@email.com" style="strokeWidth=1;shadow=0;dashed=0;align=center;html=1;shape=mxgraph.mockup.forms.rrect;rSize=0;strokeColor=#999999;fontColor=#666666;align=left;spacingLeft=5;resizeWidth=1;" parent="VU6T0Y7Y-3jl6aKl-pnd-1" vertex="1"><mxGeometry x="406.05" y="197" width="249.6" height="26" as="geometry"/></mxCell><mxCell id="VU6T0Y7Y-3jl6aKl-pnd-7" value="Nouveau mot de passe :" style="strokeWidth=1;shadow=0;dashed=0;align=center;html=1;shape=mxgraph.mockup.forms.anchor;fontSize=14;fontColor=#666666;align=left;resizeWidth=1;spacingLeft=0;" parent="VU6T0Y7Y-3jl6aKl-pnd-1" vertex="1"><mxGeometry x="406.05" y="247" width="160" height="21" as="geometry"/></mxCell><mxCell id="VU6T0Y7Y-3jl6aKl-pnd-8" value="********" style="strokeWidth=1;shadow=0;dashed=0;align=center;html=1;shape=mxgraph.mockup.forms.rrect;rSize=0;strokeColor=#999999;fontColor=#666666;align=left;spacingLeft=5;resizeWidth=1;" parent="VU6T0Y7Y-3jl6aKl-pnd-1" vertex="1"><mxGeometry x="406.05" y="267" width="249.23" height="27" as="geometry"/></mxCell><mxCell id="VU6T0Y7Y-3jl6aKl-pnd-9" value="Réinitialiser mot de passe" style="strokeWidth=1;shadow=0;dashed=0;align=center;html=1;shape=mxgraph.mockup.forms.rrect;rSize=5;strokeColor=none;fontColor=#ffffff;fillColor=#66bbff;fontSize=19;fontStyle=1;" parent="VU6T0Y7Y-3jl6aKl-pnd-1" vertex="1"><mxGeometry x="406.05" y="445" width="251.79" height="32" as="geometry"/></mxCell><mxCell id="VU6T0Y7Y-3jl6aKl-pnd-14" value="********" style="strokeWidth=1;shadow=0;dashed=0;align=center;html=1;shape=mxgraph.mockup.forms.rrect;rSize=0;strokeColor=#999999;fontColor=#666666;align=left;spacingLeft=5;resizeWidth=1;" parent="VU6T0Y7Y-3jl6aKl-pnd-1" vertex="1"><mxGeometry x="406.05" y="345" width="249.23" height="27" as="geometry"/></mxCell><mxCell id="VU6T0Y7Y-3jl6aKl-pnd-15" value="Confirmez nouveau mot de passe :" style="strokeWidth=1;shadow=0;dashed=0;align=center;html=1;shape=mxgraph.mockup.forms.anchor;fontSize=14;fontColor=#666666;align=left;resizeWidth=1;spacingLeft=0;" parent="VU6T0Y7Y-3jl6aKl-pnd-1" vertex="1"><mxGeometry x="406.05" y="325" width="160" height="21" as="geometry"/></mxCell></root></mxGraphModel></diagram><diagram name="1.2 connexion création de compte" id="8xFSvD0aIxnqieJJlEq7"><mxGraphModel dx="1405" dy="794" grid="1" gridSize="10" guides="1" tooltips="1" connect="1" arrows="1" fold="1" page="1" pageScale="1" pageWidth="1100" pageHeight="850" background="none" math="0" shadow="0"><root><mxCell id="4bkz7fjgMvuUST8J8lVn-0"/><mxCell id="4bkz7fjgMvuUST8J8lVn-1" parent="4bkz7fjgMvuUST8J8lVn-0"/><mxCell id="Aho17vHZLD1N2PuDT7_U-0" value="1.1 connexion mot de passe oublié" style="strokeWidth=1;shadow=0;dashed=0;align=center;html=1;shape=mxgraph.mockup.containers.window;align=left;verticalAlign=top;spacingLeft=8;strokeColor2=#008cff;strokeColor3=#c4c4c4;fontColor=#666666;mainText=;fontSize=17;labelBackgroundColor=none;aspect=fixed;" vertex="1" parent="4bkz7fjgMvuUST8J8lVn-1"><mxGeometry x="323.64" y="40" width="404.81" height="720" as="geometry"/></mxCell><mxCell id="4bkz7fjgMvuUST8J8lVn-3" value="Création d'un nouveau compte utilisateur" style="strokeWidth=1;shadow=0;dashed=0;align=center;html=1;shape=mxgraph.mockup.forms.anchor;fontSize=14;fontColor=#666666;align=left;resizeWidth=1;spacingLeft=0;" parent="4bkz7fjgMvuUST8J8lVn-1" vertex="1"><mxGeometry x="406.05" y="130" width="160" height="20" as="geometry"/></mxCell><mxCell id="4bkz7fjgMvuUST8J8lVn-4" value="" style="shape=line;strokeColor=#ddeeff;strokeWidth=2;html=1;resizeWidth=1;" parent="4bkz7fjgMvuUST8J8lVn-1" vertex="1"><mxGeometry x="406.05" y="154" width="287.99999999999994" height="10" as="geometry"/></mxCell><mxCell id="4bkz7fjgMvuUST8J8lVn-5" value="Email :" style="strokeWidth=1;shadow=0;dashed=0;align=center;html=1;shape=mxgraph.mockup.forms.anchor;fontSize=14;fontColor=#666666;align=left;resizeWidth=1;spacingLeft=0;" parent="4bkz7fjgMvuUST8J8lVn-1" vertex="1"><mxGeometry x="406.05" y="177" width="160" height="20" as="geometry"/></mxCell><mxCell id="4bkz7fjgMvuUST8J8lVn-6" value="utilisateur@email.com" style="strokeWidth=1;shadow=0;dashed=0;align=center;html=1;shape=mxgraph.mockup.forms.rrect;rSize=0;strokeColor=#999999;fontColor=#666666;align=left;spacingLeft=5;resizeWidth=1;" parent="4bkz7fjgMvuUST8J8lVn-1" vertex="1"><mxGeometry x="406.05" y="197" width="240" height="25" as="geometry"/></mxCell><mxCell id="4bkz7fjgMvuUST8J8lVn-7" value="Nom :" style="strokeWidth=1;shadow=0;dashed=0;align=center;html=1;shape=mxgraph.mockup.forms.anchor;fontSize=14;fontColor=#666666;align=left;resizeWidth=1;spacingLeft=0;" parent="4bkz7fjgMvuUST8J8lVn-1" vertex="1"><mxGeometry x="406.05" y="232" width="160" height="20" as="geometry"/></mxCell><mxCell id="4bkz7fjgMvuUST8J8lVn-8" value="Nom_Utilisateur" style="strokeWidth=1;shadow=0;dashed=0;align=center;html=1;shape=mxgraph.mockup.forms.rrect;rSize=0;strokeColor=#999999;fontColor=#666666;align=left;spacingLeft=5;resizeWidth=1;" parent="4bkz7fjgMvuUST8J8lVn-1" vertex="1"><mxGeometry x="406.05" y="252" width="240" height="25" as="geometry"/></mxCell><mxCell id="4bkz7fjgMvuUST8J8lVn-10" value="Prénom_Utilisateur" style="strokeWidth=1;shadow=0;dashed=0;align=center;html=1;shape=mxgraph.mockup.forms.rrect;rSize=0;strokeColor=#999999;fontColor=#666666;align=left;spacingLeft=5;resizeWidth=1;" parent="4bkz7fjgMvuUST8J8lVn-1" vertex="1"><mxGeometry x="406.05" y="310" width="240" height="25" as="geometry"/></mxCell><mxCell id="4bkz7fjgMvuUST8J8lVn-11" value="Prénom :" style="strokeWidth=1;shadow=0;dashed=0;align=center;html=1;shape=mxgraph.mockup.forms.anchor;fontSize=14;fontColor=#666666;align=left;resizeWidth=1;spacingLeft=0;" parent="4bkz7fjgMvuUST8J8lVn-1" vertex="1"><mxGeometry x="406.05" y="290" width="160" height="20" as="geometry"/></mxCell><mxCell id="4bkz7fjgMvuUST8J8lVn-13" value="&lt;font style=&quot;font-size: 20px&quot;&gt;Créer un compte&lt;/font&gt;" style="strokeWidth=1;shadow=0;dashed=0;align=center;html=1;shape=mxgraph.mockup.forms.rrect;rSize=5;strokeColor=none;fontColor=#ffffff;fillColor=#66bbff;fontSize=16;fontStyle=1;" parent="4bkz7fjgMvuUST8J8lVn-1" vertex="1"><mxGeometry x="406.05" y="570" width="235" height="47" as="geometry"/></mxCell><mxCell id="4bkz7fjgMvuUST8J8lVn-15" value="********" style="strokeWidth=1;shadow=0;dashed=0;align=center;html=1;shape=mxgraph.mockup.forms.rrect;rSize=0;strokeColor=#999999;fontColor=#666666;align=left;spacingLeft=5;resizeWidth=1;" parent="4bkz7fjgMvuUST8J8lVn-1" vertex="1"><mxGeometry x="406.05" y="426.5" width="240" height="25" as="geometry"/></mxCell><mxCell id="4bkz7fjgMvuUST8J8lVn-16" value="Confirmez mot de passe :" style="strokeWidth=1;shadow=0;dashed=0;align=center;html=1;shape=mxgraph.mockup.forms.anchor;fontSize=14;fontColor=#666666;align=left;resizeWidth=1;spacingLeft=0;" parent="4bkz7fjgMvuUST8J8lVn-1" vertex="1"><mxGeometry x="406.05" y="406.5" width="160" height="20" as="geometry"/></mxCell><mxCell id="4bkz7fjgMvuUST8J8lVn-17" value="********" style="strokeWidth=1;shadow=0;dashed=0;align=center;html=1;shape=mxgraph.mockup.forms.rrect;rSize=0;strokeColor=#999999;fontColor=#666666;align=left;spacingLeft=5;resizeWidth=1;" parent="4bkz7fjgMvuUST8J8lVn-1" vertex="1"><mxGeometry x="406.05" y="368.5" width="240" height="25" as="geometry"/></mxCell><mxCell id="4bkz7fjgMvuUST8J8lVn-18" value="Mot de passe :" style="strokeWidth=1;shadow=0;dashed=0;align=center;html=1;shape=mxgraph.mockup.forms.anchor;fontSize=14;fontColor=#666666;align=left;resizeWidth=1;spacingLeft=0;" parent="4bkz7fjgMvuUST8J8lVn-1" vertex="1"><mxGeometry x="406.05" y="348.5" width="160" height="20" as="geometry"/></mxCell><mxCell id="deZI9XHjXmOvTDK64Z3D-6" value="Élève" style="shape=ellipse;rSize=0;fillColor=#eeeeee;strokeColor=#999999;gradientColor=#cccccc;html=1;align=left;spacingLeft=4;fontSize=17;fontColor=#666666;labelPosition=right;" parent="4bkz7fjgMvuUST8J8lVn-1" vertex="1"><mxGeometry x="414.05" y="487.5" width="15" height="15" as="geometry"/></mxCell><mxCell id="deZI9XHjXmOvTDK64Z3D-7" value="Tuteur" style="shape=ellipse;rSize=0;fillColor=#eeeeee;strokeColor=#999999;gradientColor=#cccccc;html=1;align=left;spacingLeft=4;fontSize=17;fontColor=#666666;labelPosition=right;" parent="4bkz7fjgMvuUST8J8lVn-1" vertex="1"><mxGeometry x="414.05" y="517.5" width="15" height="15" as="geometry"/></mxCell></root></mxGraphModel></diagram><diagram name="2. tableau de bord" id="iXh7SlRufSBfUGD5yu6K"><mxGraphModel dx="1405" dy="794" grid="1" gridSize="10" guides="1" tooltips="1" connect="1" arrows="1" fold="1" page="1" pageScale="1" pageWidth="1100" pageHeight="850" background="none" math="0" shadow="0"><root><mxCell id="nj5yZ6E_mY4URYtarcAv-0"/><mxCell id="nj5yZ6E_mY4URYtarcAv-1" parent="nj5yZ6E_mY4URYtarcAv-0"/><mxCell id="dlmd5ZFg3xpV6fmveLe_-0" value="2. tableau de bord" style="strokeWidth=1;shadow=0;dashed=0;align=center;html=1;shape=mxgraph.mockup.containers.window;align=left;verticalAlign=top;spacingLeft=8;strokeColor2=#008cff;strokeColor3=#c4c4c4;fontColor=#666666;mainText=;fontSize=17;labelBackgroundColor=none;aspect=fixed;" vertex="1" parent="nj5yZ6E_mY4URYtarcAv-1"><mxGeometry x="323.64" y="40" width="404.81" height="720" as="geometry"/></mxCell><mxCell id="nj5yZ6E_mY4URYtarcAv-28" value="&lt;div&gt;&lt;span style=&quot;color: rgb(102 , 102 , 102) ; font-size: 17px&quot;&gt;- tâche n°1&lt;/span&gt;&lt;/div&gt;&lt;span style=&quot;color: rgb(102 , 102 , 102) ; font-size: 17px&quot;&gt;&lt;div&gt;&lt;span&gt;- tâche n°2&lt;/span&gt;&lt;/div&gt;&lt;/span&gt;&lt;span style=&quot;color: rgb(102 , 102 , 102) ; font-size: 17px&quot;&gt;&lt;div&gt;&lt;span&gt;- tâche n°3&lt;/span&gt;&lt;/div&gt;&lt;/span&gt;" style="strokeWidth=1;shadow=0;dashed=0;align=center;html=1;shape=mxgraph.mockup.forms.rrect;rSize=0;strokeColor=#999999;fillColor=#ffffff;" parent="nj5yZ6E_mY4URYtarcAv-1" vertex="1"><mxGeometry x="368.02" y="230" width="318.75" height="140" as="geometry"/></mxCell><mxCell id="nj5yZ6E_mY4URYtarcAv-29" value="Récapitulatif des tâches" style="strokeWidth=1;shadow=0;dashed=0;align=center;html=1;shape=mxgraph.mockup.forms.rrect;rSize=0;strokeColor=#999999;fontColor=#008cff;fontSize=17;fillColor=#ffffff;resizeWidth=1;" parent="nj5yZ6E_mY4URYtarcAv-28" vertex="1"><mxGeometry width="318.75" height="30" relative="1" as="geometry"/></mxCell><mxCell id="nj5yZ6E_mY4URYtarcAv-30" value="" style="strokeWidth=1;shadow=0;dashed=0;align=center;html=1;shape=mxgraph.mockup.forms.anchor;fontSize=17;fontColor=#666666;align=left;spacingLeft=5;resizeWidth=1;" parent="nj5yZ6E_mY4URYtarcAv-28" vertex="1"><mxGeometry width="318.75" height="20" relative="1" as="geometry"><mxPoint y="30" as="offset"/></mxGeometry></mxCell><mxCell id="nj5yZ6E_mY4URYtarcAv-39" value="&lt;span style=&quot;color: rgb(102 , 102 , 102) ; font-size: 17px ; text-align: left&quot;&gt;- date n°1 : évènement n°1&lt;br&gt;&lt;/span&gt;&lt;span style=&quot;color: rgb(102 , 102 , 102) ; font-size: 17px ; text-align: left&quot;&gt;- date n°2 : évènement n°2&lt;br&gt;&lt;/span&gt;&lt;span style=&quot;color: rgb(102 , 102 , 102) ; font-size: 17px ; text-align: left&quot;&gt;- date n°3 : évènement n°3&lt;br&gt;&lt;/span&gt;&lt;span style=&quot;color: rgb(102 , 102 , 102) ; font-size: 17px ; text-align: left&quot;&gt;- date n°4 : évènement n°4&lt;br&gt;&lt;/span&gt;&lt;span style=&quot;color: rgb(102 , 102 , 102) ; font-size: 17px ; text-align: left&quot;&gt;- date n°5 : évènement n°5&lt;/span&gt;&lt;span style=&quot;color: rgb(102 , 102 , 102) ; font-size: 17px ; text-align: left&quot;&gt;&lt;br&gt;&lt;/span&gt;" style="strokeWidth=1;shadow=0;dashed=0;align=center;html=1;shape=mxgraph.mockup.forms.rrect;rSize=0;strokeColor=#999999;fillColor=#ffffff;" parent="nj5yZ6E_mY4URYtarcAv-1" vertex="1"><mxGeometry x="368.02" y="480" width="318.75" height="170" as="geometry"/></mxCell><mxCell id="nj5yZ6E_mY4URYtarcAv-40" value="Liste des évènements prochains" style="strokeWidth=1;shadow=0;dashed=0;align=center;html=1;shape=mxgraph.mockup.forms.rrect;rSize=0;strokeColor=#999999;fontColor=#008cff;fontSize=17;fillColor=#ffffff;resizeWidth=1;" parent="nj5yZ6E_mY4URYtarcAv-39" vertex="1"><mxGeometry width="318.75" height="30" relative="1" as="geometry"/></mxCell><mxCell id="nj5yZ6E_mY4URYtarcAv-47" value="Nombre de Messages non lus : X" style="strokeWidth=1;shadow=0;dashed=0;align=center;html=1;shape=mxgraph.mockup.text.textBox;fontColor=#666666;align=left;fontSize=17;spacingLeft=4;spacingTop=-3;strokeColor=#666666;mainText=" parent="nj5yZ6E_mY4URYtarcAv-1" vertex="1"><mxGeometry x="367.395" y="99" width="320" height="30" as="geometry"/></mxCell><mxCell id="g4JBPiWxoflAO1-HNlbs-0" value="&lt;span style=&quot;font-size: 20px;&quot;&gt;Gestionnaire de tâches&lt;/span&gt;" style="strokeWidth=1;shadow=0;dashed=0;align=center;html=1;shape=mxgraph.mockup.forms.rrect;rSize=5;strokeColor=none;fontColor=#ffffff;fillColor=#66bbff;fontSize=20;fontStyle=1;" parent="nj5yZ6E_mY4URYtarcAv-1" vertex="1"><mxGeometry x="366.03999999999996" y="385" width="322.71" height="50" as="geometry"/></mxCell><mxCell id="g4JBPiWxoflAO1-HNlbs-1" value="&lt;span style=&quot;font-size: 20px;&quot;&gt;Calendrier&lt;/span&gt;" style="strokeWidth=1;shadow=0;dashed=0;align=center;html=1;shape=mxgraph.mockup.forms.rrect;rSize=5;strokeColor=none;fontColor=#ffffff;fillColor=#66bbff;fontSize=20;fontStyle=1;" parent="nj5yZ6E_mY4URYtarcAv-1" vertex="1"><mxGeometry x="367.41499999999996" y="660" width="319.96" height="50" as="geometry"/></mxCell><mxCell id="g4JBPiWxoflAO1-HNlbs-2" value="&lt;span style=&quot;font-size: 20px;&quot;&gt;Chat&lt;/span&gt;" style="strokeWidth=1;shadow=0;dashed=0;align=center;html=1;shape=mxgraph.mockup.forms.rrect;rSize=5;strokeColor=none;fontColor=#ffffff;fillColor=#66bbff;fontSize=20;fontStyle=1;" parent="nj5yZ6E_mY4URYtarcAv-1" vertex="1"><mxGeometry x="367.395" y="139" width="320" height="40" as="geometry"/></mxCell></root></mxGraphModel></diagram><diagram name="3.0.1 chat - accéder historique de conversation" id="VlyIOOywkk0c5qDVXT3I"><mxGraphModel dx="1405" dy="794" grid="1" gridSize="10" guides="1" tooltips="1" connect="1" arrows="1" fold="1" page="1" pageScale="1" pageWidth="1100" pageHeight="850" background="none" math="0" shadow="0"><root><mxCell id="AkllYCs8sCAKixBuuAVC-0"/><mxCell id="AkllYCs8sCAKixBuuAVC-1" parent="AkllYCs8sCAKixBuuAVC-0"/><mxCell id="F4wcy4h1R8WDaGpGN8Lb-0" value="3.0.1 chat - accéder historique de conversation" style="strokeWidth=1;shadow=0;dashed=0;align=center;html=1;shape=mxgraph.mockup.containers.window;align=left;verticalAlign=top;spacingLeft=8;strokeColor2=#008cff;strokeColor3=#c4c4c4;fontColor=#666666;mainText=;fontSize=17;labelBackgroundColor=none;aspect=fixed;" vertex="1" parent="AkllYCs8sCAKixBuuAVC-1"><mxGeometry x="323.64" y="40" width="404.81" height="720" as="geometry"/></mxCell><mxCell id="AkllYCs8sCAKixBuuAVC-20" value="" style="strokeWidth=1;shadow=0;dashed=0;align=center;html=1;shape=mxgraph.mockup.rrect;rSize=10;strokeColor=#666666;" parent="AkllYCs8sCAKixBuuAVC-1" vertex="1"><mxGeometry x="323.64" y="70" width="406.36" height="70" as="geometry"/></mxCell><mxCell id="AkllYCs8sCAKixBuuAVC-21" value="&lt;font face=&quot;Open Sans&quot; data-font-src=&quot;https://fonts.googleapis.com/css?family=Open+Sans&quot;&gt;Chat 2&lt;/font&gt;" style="strokeColor=inherit;fillColor=inherit;gradientColor=inherit;strokeWidth=1;shadow=0;dashed=0;align=center;html=1;shape=mxgraph.mockup.rrect;rSize=0;fontSize=17;fontColor=#666666;fontStyle=1;resizeWidth=1;" parent="AkllYCs8sCAKixBuuAVC-20" vertex="1"><mxGeometry width="406.36" height="70" relative="1" as="geometry"><mxPoint y="70" as="offset"/></mxGeometry></mxCell><mxCell id="AkllYCs8sCAKixBuuAVC-22" value="&lt;font face=&quot;Open Sans&quot; data-font-src=&quot;https://fonts.googleapis.com/css?family=Open+Sans&quot;&gt;Chat 3&lt;/font&gt;" style="strokeColor=inherit;fillColor=inherit;gradientColor=inherit;strokeWidth=1;shadow=0;dashed=0;align=center;html=1;shape=mxgraph.mockup.rrect;rSize=0;fontSize=17;fontColor=#666666;fontStyle=1;resizeWidth=1;" parent="AkllYCs8sCAKixBuuAVC-20" vertex="1"><mxGeometry width="406.36" height="70" relative="1" as="geometry"><mxPoint y="140" as="offset"/></mxGeometry></mxCell><mxCell id="AkllYCs8sCAKixBuuAVC-23" value="&lt;font face=&quot;Open Sans&quot; data-font-src=&quot;https://fonts.googleapis.com/css?family=Open+Sans&quot;&gt;Chat 4&lt;/font&gt;" style="strokeColor=inherit;fillColor=inherit;gradientColor=inherit;strokeWidth=1;shadow=0;dashed=0;align=center;html=1;shape=mxgraph.mockup.bottomButton;rSize=10;fontSize=17;fontColor=#666666;fontStyle=1;resizeWidth=1;" parent="AkllYCs8sCAKixBuuAVC-20" vertex="1"><mxGeometry y="1" width="406.36" height="70" relative="1" as="geometry"><mxPoint y="140" as="offset"/></mxGeometry></mxCell><mxCell id="AkllYCs8sCAKixBuuAVC-24" value="&lt;font face=&quot;Open Sans&quot; data-font-src=&quot;https://fonts.googleapis.com/css?family=Open+Sans&quot;&gt;Jean Dupont&lt;/font&gt;" style="strokeWidth=1;shadow=0;dashed=0;align=center;html=1;shape=mxgraph.mockup.topButton;rSize=10;fontSize=17;fontColor=#ffffff;fontStyle=1;fillColor=#66BBFF;strokeColor=#66BBFF;resizeWidth=1;" parent="AkllYCs8sCAKixBuuAVC-20" vertex="1"><mxGeometry width="406.36" height="70" relative="1" as="geometry"/></mxCell><mxCell id="J5QLljel0uLwjayjmN19-1" value="" style="verticalLabelPosition=bottom;shadow=0;dashed=0;align=center;html=1;verticalAlign=top;strokeWidth=1;shape=mxgraph.mockup.containers.userMale;strokeColor=#666666;strokeColor2=#008cff;rounded=0;fontFamily=Open Sans;fontSource=https%3A%2F%2Ffonts.googleapis.com%2Fcss%3Ffamily%3DOpen%2BSans;fontSize=14;fontColor=#B5B5B5;fillColor=none;gradientColor=none;" parent="AkllYCs8sCAKixBuuAVC-20" vertex="1"><mxGeometry x="26.360000000000014" y="20" width="30" height="30" as="geometry"/></mxCell><mxCell id="AkllYCs8sCAKixBuuAVC-28" value="" style="group;fillColor=default;container=0;" parent="AkllYCs8sCAKixBuuAVC-1" vertex="1" connectable="0"><mxGeometry x="504.32" y="377.5" width="45" height="45" as="geometry"/></mxCell><mxCell id="AkllYCs8sCAKixBuuAVC-27" value="" style="ellipse;whiteSpace=wrap;html=1;aspect=fixed;fontColor=#000000;fillColor=#66BBFF;strokeColor=#757575;" parent="AkllYCs8sCAKixBuuAVC-1" vertex="1"><mxGeometry x="504.32" y="377.5" width="45" height="45" as="geometry"/></mxCell><mxCell id="AkllYCs8sCAKixBuuAVC-25" value="" style="shape=cross;whiteSpace=wrap;html=1;fontColor=#000000;strokeColor=none;" parent="AkllYCs8sCAKixBuuAVC-1" vertex="1"><mxGeometry x="511.82" y="385" width="30" height="30" as="geometry"/></mxCell><mxCell id="Fg0x8FaQ1h9zl6P2UYrT-0" value="" style="ellipse;whiteSpace=wrap;html=1;aspect=fixed;fontColor=#000000;fillColor=#66BBFF;strokeColor=#757575;" parent="AkllYCs8sCAKixBuuAVC-1" vertex="1"><mxGeometry x="504.32" y="680" width="45" height="45" as="geometry"/></mxCell><mxCell id="Fg0x8FaQ1h9zl6P2UYrT-1" value="" style="shape=cross;whiteSpace=wrap;html=1;fontColor=#000000;strokeColor=none;rotation=45;" parent="AkllYCs8sCAKixBuuAVC-1" vertex="1"><mxGeometry x="511.82" y="687.5" width="30" height="30" as="geometry"/></mxCell></root></mxGraphModel></diagram><diagram name="3.0.2 chat - discussion instantanée" id="J0nqLwgfr7NFoegI1iYm"><mxGraphModel dx="1405" dy="794" grid="1" gridSize="10" guides="1" tooltips="1" connect="1" arrows="1" fold="1" page="1" pageScale="1" pageWidth="1100" pageHeight="850" background="none" math="0" shadow="0"><root><mxCell id="7ok_PlazcmkRJek2clCr-0"/><mxCell id="7ok_PlazcmkRJek2clCr-1" parent="7ok_PlazcmkRJek2clCr-0"/><mxCell id="7ok_PlazcmkRJek2clCr-2" value="3.0.2 chat - discussion instantanée" style="strokeWidth=1;shadow=0;dashed=0;align=center;html=1;shape=mxgraph.mockup.containers.window;align=left;verticalAlign=top;spacingLeft=8;strokeColor2=#008cff;strokeColor3=#c4c4c4;fontColor=#666666;mainText=;fontSize=17;labelBackgroundColor=none;aspect=fixed;" vertex="1" parent="7ok_PlazcmkRJek2clCr-1"><mxGeometry x="323.64" y="40" width="404.81" height="720" as="geometry"/></mxCell><mxCell id="7ok_PlazcmkRJek2clCr-11" value="&lt;font data-font-src=&quot;https://fonts.googleapis.com/css?family=Open+Sans&quot; face=&quot;Open Sans&quot;&gt;Jean Dupont&lt;br&gt;&lt;br&gt;Message 1&lt;/font&gt;" style="rounded=1;whiteSpace=wrap;html=1;shadow=0;fontColor=#000000;strokeColor=#757575;fillColor=#99CFFF;gradientColor=none;arcSize=32;" vertex="1" parent="7ok_PlazcmkRJek2clCr-1"><mxGeometry x="376.37" y="140" width="185.45" height="60" as="geometry"/></mxCell><mxCell id="7ok_PlazcmkRJek2clCr-12" value="&lt;font data-font-src=&quot;https://fonts.googleapis.com/css?family=Open+Sans&quot; face=&quot;Open Sans&quot; style=&quot;font-size: 12px&quot;&gt;Utilisateur&lt;br&gt;&lt;br&gt;Message 2&lt;/font&gt;" style="rounded=1;whiteSpace=wrap;html=1;shadow=0;fontColor=#333333;strokeColor=#666666;fillColor=#f5f5f5;arcSize=32;fontSize=9;" vertex="1" parent="7ok_PlazcmkRJek2clCr-1"><mxGeometry x="511.82" y="240" width="200" height="65" as="geometry"/></mxCell><mxCell id="7ok_PlazcmkRJek2clCr-13" value="&lt;font data-font-src=&quot;https://fonts.googleapis.com/css?family=Open+Sans&quot; face=&quot;Open Sans&quot; style=&quot;font-size: 12px&quot;&gt;Utilisateur&lt;br&gt;&lt;br&gt;Message 3&lt;/font&gt;" style="rounded=1;whiteSpace=wrap;html=1;shadow=0;fontColor=#333333;strokeColor=#666666;fillColor=#f5f5f5;arcSize=32;fontSize=9;" vertex="1" parent="7ok_PlazcmkRJek2clCr-1"><mxGeometry x="511.82" y="366" width="200" height="65" as="geometry"/></mxCell><mxCell id="7ok_PlazcmkRJek2clCr-14" value="&lt;font style=&quot;font-size: 14px&quot; color=&quot;#b5b5b5&quot;&gt;Votre texte ici&lt;/font&gt;" style="rounded=1;whiteSpace=wrap;html=1;shadow=0;fontFamily=Open Sans;fontSource=https%3A%2F%2Ffonts.googleapis.com%2Fcss%3Ffamily%3DOpen%2BSans;fontColor=#000000;strokeColor=#B5B5B5;fillColor=none;gradientColor=none;" vertex="1" parent="7ok_PlazcmkRJek2clCr-1"><mxGeometry x="350" y="566.5" width="360" height="100" as="geometry"/></mxCell><mxCell id="7ok_PlazcmkRJek2clCr-15" value="" style="verticalLabelPosition=bottom;shadow=0;dashed=0;align=center;html=1;verticalAlign=top;strokeWidth=1;shape=mxgraph.mockup.containers.userMale;strokeColor=#666666;strokeColor2=#008cff;rounded=0;fontFamily=Open Sans;fontSource=https%3A%2F%2Ffonts.googleapis.com%2Fcss%3Ffamily%3DOpen%2BSans;fontSize=14;fontColor=#B5B5B5;fillColor=none;gradientColor=none;" vertex="1" parent="7ok_PlazcmkRJek2clCr-1"><mxGeometry x="340.27" y="140" width="30" height="30" as="geometry"/></mxCell><mxCell id="7ok_PlazcmkRJek2clCr-16" value="" style="verticalLabelPosition=bottom;verticalAlign=top;html=1;shape=mxgraph.basic.tick;rounded=0;shadow=0;fontFamily=Open Sans;fontSource=https%3A%2F%2Ffonts.googleapis.com%2Fcss%3Ffamily%3DOpen%2BSans;fontSize=14;strokeColor=#82b366;fillColor=#67AB9F;aspect=fixed;" vertex="1" parent="7ok_PlazcmkRJek2clCr-1"><mxGeometry x="692.82" y="412" width="12" height="14.1" as="geometry"/></mxCell><mxCell id="7ok_PlazcmkRJek2clCr-17" value="" style="verticalLabelPosition=bottom;verticalAlign=top;html=1;shape=mxgraph.basic.tick;rounded=0;shadow=0;fontFamily=Open Sans;fontSource=https%3A%2F%2Ffonts.googleapis.com%2Fcss%3Ffamily%3DOpen%2BSans;fontSize=14;strokeColor=#82b366;fillColor=#67AB9F;aspect=fixed;" vertex="1" parent="7ok_PlazcmkRJek2clCr-1"><mxGeometry x="691.82" y="286" width="12" height="14.1" as="geometry"/></mxCell><mxCell id="7ok_PlazcmkRJek2clCr-18" value="4/12/2021 2:11:59" style="text;html=1;strokeColor=none;fillColor=none;align=center;verticalAlign=middle;whiteSpace=wrap;rounded=0;shadow=0;fontFamily=Open Sans;fontSource=https%3A%2F%2Ffonts.googleapis.com%2Fcss%3Ffamily%3DOpen%2BSans;fontSize=7;fontColor=#808080;aspect=fixed;" vertex="1" parent="7ok_PlazcmkRJek2clCr-1"><mxGeometry x="495.82" y="412" width="130" height="30" as="geometry"/></mxCell><mxCell id="7ok_PlazcmkRJek2clCr-19" value="3/12/2021 5:11:59" style="text;html=1;strokeColor=none;fillColor=none;align=center;verticalAlign=middle;whiteSpace=wrap;rounded=0;shadow=0;fontFamily=Open Sans;fontSource=https%3A%2F%2Ffonts.googleapis.com%2Fcss%3Ffamily%3DOpen%2BSans;fontSize=7;fontColor=#808080;aspect=fixed;" vertex="1" parent="7ok_PlazcmkRJek2clCr-1"><mxGeometry x="495.82" y="286" width="130" height="30" as="geometry"/></mxCell><mxCell id="7ok_PlazcmkRJek2clCr-20" value="3/12/2021 2:11:59" style="text;html=1;strokeColor=none;fillColor=none;align=center;verticalAlign=middle;whiteSpace=wrap;rounded=0;shadow=0;fontFamily=Open Sans;fontSource=https%3A%2F%2Ffonts.googleapis.com%2Fcss%3Ffamily%3DOpen%2BSans;fontSize=7;fontColor=#4D4D4D;" vertex="1" parent="7ok_PlazcmkRJek2clCr-1"><mxGeometry x="361.82" y="180" width="130" height="30" as="geometry"/></mxCell><mxCell id="7ok_PlazcmkRJek2clCr-21" value="&lt;span style=&quot;font-size: 17px&quot;&gt;Envoyer&lt;/span&gt;" style="strokeWidth=1;shadow=0;dashed=0;align=center;html=1;shape=mxgraph.mockup.forms.rrect;rSize=5;strokeColor=none;fontColor=#ffffff;fillColor=#66bbff;fontSize=16;fontStyle=1;" vertex="1" parent="7ok_PlazcmkRJek2clCr-1"><mxGeometry x="350" y="680" width="360" height="60" as="geometry"/></mxCell><mxCell id="7ok_PlazcmkRJek2clCr-24" value="&lt;font data-font-src=&quot;https://fonts.googleapis.com/css?family=Open+Sans&quot; face=&quot;Open Sans&quot;&gt;Jean Dupont&lt;br&gt;&lt;br&gt;Message 4&lt;/font&gt;" style="rounded=1;whiteSpace=wrap;html=1;shadow=0;fontColor=#000000;strokeColor=#757575;fillColor=#99CFFF;gradientColor=none;arcSize=32;" vertex="1" parent="7ok_PlazcmkRJek2clCr-1"><mxGeometry x="376.37" y="470" width="185.45" height="60" as="geometry"/></mxCell><mxCell id="7ok_PlazcmkRJek2clCr-25" value="" style="verticalLabelPosition=bottom;shadow=0;dashed=0;align=center;html=1;verticalAlign=top;strokeWidth=1;shape=mxgraph.mockup.containers.userMale;strokeColor=#666666;strokeColor2=#008cff;rounded=0;fontFamily=Open Sans;fontSource=https%3A%2F%2Ffonts.googleapis.com%2Fcss%3Ffamily%3DOpen%2BSans;fontSize=14;fontColor=#B5B5B5;fillColor=none;gradientColor=none;" vertex="1" parent="7ok_PlazcmkRJek2clCr-1"><mxGeometry x="340.27" y="470" width="30" height="30" as="geometry"/></mxCell><mxCell id="7ok_PlazcmkRJek2clCr-26" value="5/12/2021 2:11:59" style="text;html=1;strokeColor=none;fillColor=none;align=center;verticalAlign=middle;whiteSpace=wrap;rounded=0;shadow=0;fontFamily=Open Sans;fontSource=https%3A%2F%2Ffonts.googleapis.com%2Fcss%3Ffamily%3DOpen%2BSans;fontSize=7;fontColor=#4D4D4D;" vertex="1" parent="7ok_PlazcmkRJek2clCr-1"><mxGeometry x="360" y="510" width="130" height="30" as="geometry"/></mxCell><mxCell id="7ok_PlazcmkRJek2clCr-27" value="" style="strokeWidth=1;shadow=0;dashed=0;align=center;html=1;shape=mxgraph.mockup.rrect;rSize=10;strokeColor=#666666;" vertex="1" parent="7ok_PlazcmkRJek2clCr-1"><mxGeometry x="323.64" y="70" width="406.36" height="50" as="geometry"/></mxCell><mxCell id="7ok_PlazcmkRJek2clCr-28" value="&lt;font face=&quot;Open Sans&quot; data-font-src=&quot;https://fonts.googleapis.com/css?family=Open+Sans&quot;&gt;Jean D.&lt;/font&gt;" style="strokeWidth=1;shadow=0;dashed=0;align=center;html=1;shape=mxgraph.mockup.topButton;rSize=10;fontSize=17;fontColor=#ffffff;fontStyle=1;fillColor=#66BBFF;strokeColor=#66BBFF;resizeWidth=1;" vertex="1" parent="7ok_PlazcmkRJek2clCr-27"><mxGeometry width="406.36" height="50" relative="1" as="geometry"/></mxCell><mxCell id="eie668HHP5Hj0oYqlElS-0" value="" style="shape=corner;whiteSpace=wrap;html=1;fontSize=7;align=center;rotation=-45;dx=10;dy=9;" vertex="1" parent="7ok_PlazcmkRJek2clCr-27"><mxGeometry x="20.590000000000032" y="13.95999999999998" width="22.07" height="22.07" as="geometry"/></mxCell></root></mxGraphModel></diagram><diagram name="3.1 chat - ajouter un contact" id="dT-OjuukUvPTlzSOu8Sj"><mxGraphModel dx="1405" dy="794" grid="1" gridSize="10" guides="1" tooltips="1" connect="1" arrows="1" fold="1" page="1" pageScale="1" pageWidth="1100" pageHeight="850" background="none" math="0" shadow="0"><root><mxCell id="agRC5baispi6ywvx3zUz-0"/><mxCell id="agRC5baispi6ywvx3zUz-1" parent="agRC5baispi6ywvx3zUz-0"/><mxCell id="agRC5baispi6ywvx3zUz-2" value="3.0.1 chat - accéder historique de conversation" style="strokeWidth=1;shadow=0;dashed=0;align=center;html=1;shape=mxgraph.mockup.containers.window;align=left;verticalAlign=top;spacingLeft=8;strokeColor2=#008cff;strokeColor3=#c4c4c4;fontColor=#666666;mainText=;fontSize=17;labelBackgroundColor=none;aspect=fixed;" vertex="1" parent="agRC5baispi6ywvx3zUz-1"><mxGeometry x="323.64" y="40" width="404.81" height="720" as="geometry"/></mxCell><mxCell id="agRC5baispi6ywvx3zUz-3" value="" style="strokeWidth=1;shadow=0;dashed=0;align=center;html=1;shape=mxgraph.mockup.rrect;rSize=10;strokeColor=#666666;" vertex="1" parent="agRC5baispi6ywvx3zUz-1"><mxGeometry x="323.64" y="70" width="406.36" height="70" as="geometry"/></mxCell><mxCell id="agRC5baispi6ywvx3zUz-4" value="&lt;font face=&quot;Open Sans&quot; data-font-src=&quot;https://fonts.googleapis.com/css?family=Open+Sans&quot;&gt;Chat 2&lt;/font&gt;" style="strokeColor=inherit;fillColor=inherit;gradientColor=inherit;strokeWidth=1;shadow=0;dashed=0;align=center;html=1;shape=mxgraph.mockup.rrect;rSize=0;fontSize=17;fontColor=#666666;fontStyle=1;resizeWidth=1;" vertex="1" parent="agRC5baispi6ywvx3zUz-3"><mxGeometry width="406.36" height="70" relative="1" as="geometry"><mxPoint y="70" as="offset"/></mxGeometry></mxCell><mxCell id="agRC5baispi6ywvx3zUz-5" value="&lt;font face=&quot;Open Sans&quot; data-font-src=&quot;https://fonts.googleapis.com/css?family=Open+Sans&quot;&gt;Chat 3&lt;/font&gt;" style="strokeColor=inherit;fillColor=inherit;gradientColor=inherit;strokeWidth=1;shadow=0;dashed=0;align=center;html=1;shape=mxgraph.mockup.rrect;rSize=0;fontSize=17;fontColor=#666666;fontStyle=1;resizeWidth=1;" vertex="1" parent="agRC5baispi6ywvx3zUz-3"><mxGeometry width="406.36" height="70" relative="1" as="geometry"><mxPoint y="140" as="offset"/></mxGeometry></mxCell><mxCell id="agRC5baispi6ywvx3zUz-6" value="&lt;font face=&quot;Open Sans&quot; data-font-src=&quot;https://fonts.googleapis.com/css?family=Open+Sans&quot;&gt;Chat 4&lt;/font&gt;" style="strokeColor=inherit;fillColor=inherit;gradientColor=inherit;strokeWidth=1;shadow=0;dashed=0;align=center;html=1;shape=mxgraph.mockup.bottomButton;rSize=10;fontSize=17;fontColor=#666666;fontStyle=1;resizeWidth=1;" vertex="1" parent="agRC5baispi6ywvx3zUz-3"><mxGeometry y="1" width="406.36" height="70" relative="1" as="geometry"><mxPoint y="140" as="offset"/></mxGeometry></mxCell><mxCell id="agRC5baispi6ywvx3zUz-7" value="&lt;font face=&quot;Open Sans&quot; data-font-src=&quot;https://fonts.googleapis.com/css?family=Open+Sans&quot;&gt;Jean Dupont&lt;/font&gt;" style="strokeWidth=1;shadow=0;dashed=0;align=center;html=1;shape=mxgraph.mockup.topButton;rSize=10;fontSize=17;fontColor=#ffffff;fontStyle=1;fillColor=#66BBFF;strokeColor=#66BBFF;resizeWidth=1;" vertex="1" parent="agRC5baispi6ywvx3zUz-3"><mxGeometry width="406.36" height="70" relative="1" as="geometry"/></mxCell><mxCell id="agRC5baispi6ywvx3zUz-8" value="" style="verticalLabelPosition=bottom;shadow=0;dashed=0;align=center;html=1;verticalAlign=top;strokeWidth=1;shape=mxgraph.mockup.containers.userMale;strokeColor=#666666;strokeColor2=#008cff;rounded=0;fontFamily=Open Sans;fontSource=https%3A%2F%2Ffonts.googleapis.com%2Fcss%3Ffamily%3DOpen%2BSans;fontSize=14;fontColor=#B5B5B5;fillColor=none;gradientColor=none;" vertex="1" parent="agRC5baispi6ywvx3zUz-3"><mxGeometry x="26.360000000000014" y="20" width="30" height="30" as="geometry"/></mxCell><mxCell id="agRC5baispi6ywvx3zUz-9" value="" style="group;fillColor=default;container=0;" vertex="1" connectable="0" parent="agRC5baispi6ywvx3zUz-1"><mxGeometry x="504.32" y="377.5" width="45" height="45" as="geometry"/></mxCell><mxCell id="agRC5baispi6ywvx3zUz-10" value="" style="ellipse;whiteSpace=wrap;html=1;aspect=fixed;fontColor=#000000;fillColor=#66BBFF;strokeColor=#757575;" vertex="1" parent="agRC5baispi6ywvx3zUz-1"><mxGeometry x="504.32" y="377.5" width="45" height="45" as="geometry"/></mxCell><mxCell id="agRC5baispi6ywvx3zUz-11" value="" style="shape=cross;whiteSpace=wrap;html=1;fontColor=#000000;strokeColor=none;" vertex="1" parent="agRC5baispi6ywvx3zUz-1"><mxGeometry x="511.82" y="385" width="30" height="30" as="geometry"/></mxCell><mxCell id="agRC5baispi6ywvx3zUz-12" value="" style="ellipse;whiteSpace=wrap;html=1;aspect=fixed;fontColor=#000000;fillColor=#66BBFF;strokeColor=#757575;" vertex="1" parent="agRC5baispi6ywvx3zUz-1"><mxGeometry x="504.32" y="680" width="45" height="45" as="geometry"/></mxCell><mxCell id="agRC5baispi6ywvx3zUz-13" value="" style="shape=cross;whiteSpace=wrap;html=1;fontColor=#000000;strokeColor=none;rotation=45;" vertex="1" parent="agRC5baispi6ywvx3zUz-1"><mxGeometry x="511.82" y="687.5" width="30" height="30" as="geometry"/></mxCell><mxCell id="suclSXoU2CoDC9X5s6XC-0" value="" style="rounded=0;whiteSpace=wrap;html=1;gradientDirection=west;opacity=80;strokeColor=none;" vertex="1" parent="agRC5baispi6ywvx3zUz-1"><mxGeometry x="320" y="30" width="420" height="740" as="geometry"/></mxCell><mxCell id="zMazFjvVLNT2tm7z4V41-0" value="3.1 chat - Ajouter un contact" style="strokeWidth=1;shadow=0;dashed=0;align=center;html=1;shape=mxgraph.mockup.containers.window;align=left;verticalAlign=top;spacingLeft=8;strokeColor2=#008cff;strokeColor3=#c4c4c4;fontColor=#666666;mainText=;fontSize=17;labelBackgroundColor=none;gradientColor=none;gradientDirection=west;" vertex="1" parent="agRC5baispi6ywvx3zUz-1"><mxGeometry x="369.82" y="162.5" width="314" height="397.5" as="geometry"/></mxCell><mxCell id="zMazFjvVLNT2tm7z4V41-1" value="&lt;font style=&quot;font-size: 14px&quot;&gt;Email :&lt;/font&gt;" style="strokeWidth=1;shadow=0;dashed=0;align=center;html=1;shape=mxgraph.mockup.forms.anchor;fontSize=12;fontColor=#666666;align=left;resizeWidth=1;spacingLeft=0;" vertex="1" parent="agRC5baispi6ywvx3zUz-1"><mxGeometry x="406.82" y="285" width="160" height="20" as="geometry"/></mxCell><mxCell id="zMazFjvVLNT2tm7z4V41-2" value="utilisateur@email.com" style="strokeWidth=1;shadow=0;dashed=0;align=center;html=1;shape=mxgraph.mockup.forms.rrect;rSize=0;strokeColor=#999999;fontColor=#666666;align=left;spacingLeft=5;resizeWidth=1;" vertex="1" parent="agRC5baispi6ywvx3zUz-1"><mxGeometry x="406.82" y="305" width="240" height="25" as="geometry"/></mxCell><mxCell id="zMazFjvVLNT2tm7z4V41-3" value="&lt;font style=&quot;font-size: 20px&quot;&gt;Ajouter contact&lt;/font&gt;" style="strokeWidth=1;shadow=0;dashed=0;align=center;html=1;shape=mxgraph.mockup.forms.rrect;rSize=5;strokeColor=none;fontColor=#ffffff;fillColor=#66bbff;fontSize=16;fontStyle=1;" vertex="1" parent="agRC5baispi6ywvx3zUz-1"><mxGeometry x="406.82" y="360" width="239.18" height="30" as="geometry"/></mxCell></root></mxGraphModel></diagram><diagram name="3.4 chat - supprimer un contact" id="H3S4mt88Iu-mUf2F7hL3"><mxGraphModel dx="1405" dy="794" grid="1" gridSize="10" guides="1" tooltips="1" connect="1" arrows="1" fold="1" page="1" pageScale="1" pageWidth="1100" pageHeight="850" background="none" math="0" shadow="0"><root><mxCell id="_r_6ajCM1TIJU5L_FJhM-0"/><mxCell id="_r_6ajCM1TIJU5L_FJhM-1" parent="_r_6ajCM1TIJU5L_FJhM-0"/><mxCell id="_r_6ajCM1TIJU5L_FJhM-2" value="3.0.1 chat - accéder historique de conversation" style="strokeWidth=1;shadow=0;dashed=0;align=center;html=1;shape=mxgraph.mockup.containers.window;align=left;verticalAlign=top;spacingLeft=8;strokeColor2=#008cff;strokeColor3=#c4c4c4;fontColor=#666666;mainText=;fontSize=17;labelBackgroundColor=none;aspect=fixed;" vertex="1" parent="_r_6ajCM1TIJU5L_FJhM-1"><mxGeometry x="323.64" y="40" width="404.81" height="720" as="geometry"/></mxCell><mxCell id="_r_6ajCM1TIJU5L_FJhM-3" value="" style="strokeWidth=1;shadow=0;dashed=0;align=center;html=1;shape=mxgraph.mockup.rrect;rSize=10;strokeColor=#666666;" vertex="1" parent="_r_6ajCM1TIJU5L_FJhM-1"><mxGeometry x="323.64" y="70" width="406.36" height="70" as="geometry"/></mxCell><mxCell id="_r_6ajCM1TIJU5L_FJhM-4" value="&lt;font face=&quot;Open Sans&quot; data-font-src=&quot;https://fonts.googleapis.com/css?family=Open+Sans&quot;&gt;Chat 2&lt;/font&gt;" style="strokeColor=inherit;fillColor=inherit;gradientColor=inherit;strokeWidth=1;shadow=0;dashed=0;align=center;html=1;shape=mxgraph.mockup.rrect;rSize=0;fontSize=17;fontColor=#666666;fontStyle=1;resizeWidth=1;" vertex="1" parent="_r_6ajCM1TIJU5L_FJhM-3"><mxGeometry width="406.36" height="70" relative="1" as="geometry"><mxPoint y="70" as="offset"/></mxGeometry></mxCell><mxCell id="_r_6ajCM1TIJU5L_FJhM-5" value="&lt;font face=&quot;Open Sans&quot; data-font-src=&quot;https://fonts.googleapis.com/css?family=Open+Sans&quot;&gt;Chat 3&lt;/font&gt;" style="strokeColor=inherit;fillColor=inherit;gradientColor=inherit;strokeWidth=1;shadow=0;dashed=0;align=center;html=1;shape=mxgraph.mockup.rrect;rSize=0;fontSize=17;fontColor=#666666;fontStyle=1;resizeWidth=1;" vertex="1" parent="_r_6ajCM1TIJU5L_FJhM-3"><mxGeometry width="406.36" height="70" relative="1" as="geometry"><mxPoint y="140" as="offset"/></mxGeometry></mxCell><mxCell id="_r_6ajCM1TIJU5L_FJhM-6" value="&lt;font face=&quot;Open Sans&quot; data-font-src=&quot;https://fonts.googleapis.com/css?family=Open+Sans&quot;&gt;Chat 4&lt;/font&gt;" style="strokeColor=inherit;fillColor=inherit;gradientColor=inherit;strokeWidth=1;shadow=0;dashed=0;align=center;html=1;shape=mxgraph.mockup.bottomButton;rSize=10;fontSize=17;fontColor=#666666;fontStyle=1;resizeWidth=1;" vertex="1" parent="_r_6ajCM1TIJU5L_FJhM-3"><mxGeometry y="1" width="406.36" height="70" relative="1" as="geometry"><mxPoint y="140" as="offset"/></mxGeometry></mxCell><mxCell id="_r_6ajCM1TIJU5L_FJhM-7" value="&lt;font face=&quot;Open Sans&quot; data-font-src=&quot;https://fonts.googleapis.com/css?family=Open+Sans&quot;&gt;Jean Dupont&lt;/font&gt;" style="strokeWidth=1;shadow=0;dashed=0;align=center;html=1;shape=mxgraph.mockup.topButton;rSize=10;fontSize=17;fontColor=#ffffff;fontStyle=1;fillColor=#66BBFF;strokeColor=#66BBFF;resizeWidth=1;" vertex="1" parent="_r_6ajCM1TIJU5L_FJhM-3"><mxGeometry width="406.36" height="70" relative="1" as="geometry"/></mxCell><mxCell id="_r_6ajCM1TIJU5L_FJhM-8" value="" style="verticalLabelPosition=bottom;shadow=0;dashed=0;align=center;html=1;verticalAlign=top;strokeWidth=1;shape=mxgraph.mockup.containers.userMale;strokeColor=#666666;strokeColor2=#008cff;rounded=0;fontFamily=Open Sans;fontSource=https%3A%2F%2Ffonts.googleapis.com%2Fcss%3Ffamily%3DOpen%2BSans;fontSize=14;fontColor=#B5B5B5;fillColor=none;gradientColor=none;" vertex="1" parent="_r_6ajCM1TIJU5L_FJhM-3"><mxGeometry x="26.360000000000014" y="20" width="30" height="30" as="geometry"/></mxCell><mxCell id="_r_6ajCM1TIJU5L_FJhM-9" value="" style="group;fillColor=default;container=0;" vertex="1" connectable="0" parent="_r_6ajCM1TIJU5L_FJhM-1"><mxGeometry x="504.32" y="377.5" width="45" height="45" as="geometry"/></mxCell><mxCell id="_r_6ajCM1TIJU5L_FJhM-10" value="" style="ellipse;whiteSpace=wrap;html=1;aspect=fixed;fontColor=#000000;fillColor=#66BBFF;strokeColor=#757575;" vertex="1" parent="_r_6ajCM1TIJU5L_FJhM-1"><mxGeometry x="504.32" y="377.5" width="45" height="45" as="geometry"/></mxCell><mxCell id="_r_6ajCM1TIJU5L_FJhM-11" value="" style="shape=cross;whiteSpace=wrap;html=1;fontColor=#000000;strokeColor=none;" vertex="1" parent="_r_6ajCM1TIJU5L_FJhM-1"><mxGeometry x="511.82" y="385" width="30" height="30" as="geometry"/></mxCell><mxCell id="_r_6ajCM1TIJU5L_FJhM-12" value="" style="ellipse;whiteSpace=wrap;html=1;aspect=fixed;fontColor=#000000;fillColor=#66BBFF;strokeColor=#757575;" vertex="1" parent="_r_6ajCM1TIJU5L_FJhM-1"><mxGeometry x="504.32" y="680" width="45" height="45" as="geometry"/></mxCell><mxCell id="_r_6ajCM1TIJU5L_FJhM-13" value="" style="shape=cross;whiteSpace=wrap;html=1;fontColor=#000000;strokeColor=none;rotation=45;" vertex="1" parent="_r_6ajCM1TIJU5L_FJhM-1"><mxGeometry x="511.82" y="687.5" width="30" height="30" as="geometry"/></mxCell><mxCell id="_r_6ajCM1TIJU5L_FJhM-14" value="" style="rounded=0;whiteSpace=wrap;html=1;gradientDirection=west;opacity=80;strokeColor=none;" vertex="1" parent="_r_6ajCM1TIJU5L_FJhM-1"><mxGeometry x="320" y="30" width="420" height="740" as="geometry"/></mxCell><mxCell id="_r_6ajCM1TIJU5L_FJhM-16" value="3.4 chat - Supprimer contact" style="strokeWidth=1;shadow=0;dashed=0;align=center;html=1;shape=mxgraph.mockup.containers.window;align=left;verticalAlign=top;spacingLeft=8;strokeColor2=#008cff;strokeColor3=#c4c4c4;fontColor=#666666;mainText=;fontSize=17;labelBackgroundColor=none;gradientColor=none;gradientDirection=west;" vertex="1" parent="_r_6ajCM1TIJU5L_FJhM-1"><mxGeometry x="369.82" y="162.5" width="314" height="397.5" as="geometry"/></mxCell><mxCell id="_r_6ajCM1TIJU5L_FJhM-17" value="&lt;font style=&quot;font-size: 14px&quot;&gt;Email :&lt;/font&gt;" style="strokeWidth=1;shadow=0;dashed=0;align=center;html=1;shape=mxgraph.mockup.forms.anchor;fontSize=12;fontColor=#666666;align=left;resizeWidth=1;spacingLeft=0;" vertex="1" parent="_r_6ajCM1TIJU5L_FJhM-1"><mxGeometry x="406.82" y="285" width="160" height="20" as="geometry"/></mxCell><mxCell id="_r_6ajCM1TIJU5L_FJhM-18" value="utilisateur@email.com" style="strokeWidth=1;shadow=0;dashed=0;align=center;html=1;shape=mxgraph.mockup.forms.rrect;rSize=0;strokeColor=#999999;fontColor=#666666;align=left;spacingLeft=5;resizeWidth=1;" vertex="1" parent="_r_6ajCM1TIJU5L_FJhM-1"><mxGeometry x="406.82" y="305" width="240" height="25" as="geometry"/></mxCell><mxCell id="_r_6ajCM1TIJU5L_FJhM-19" value="&lt;font style=&quot;font-size: 20px;&quot;&gt;Supprimer&lt;/font&gt; contact" style="strokeWidth=1;shadow=0;dashed=0;align=center;html=1;shape=mxgraph.mockup.forms.rrect;rSize=5;strokeColor=none;fontColor=#ffffff;fillColor=#66bbff;fontSize=20;fontStyle=1;" vertex="1" parent="_r_6ajCM1TIJU5L_FJhM-1"><mxGeometry x="406.82" y="360" width="239.18" height="30" as="geometry"/></mxCell></root></mxGraphModel></diagram><diagram name="4. calendrier" id="4Nr62rriCKeC57RQ7Glp"><mxGraphModel dx="1405" dy="794" grid="1" gridSize="10" guides="1" tooltips="1" connect="1" arrows="1" fold="1" page="1" pageScale="1" pageWidth="1100" pageHeight="850" background="none" math="0" shadow="0"><root><mxCell id="IAQC5l6bsOiNnB8kq8u3-0"/><mxCell id="IAQC5l6bsOiNnB8kq8u3-1" parent="IAQC5l6bsOiNnB8kq8u3-0"/><mxCell id="fRVXd4QxLe0JpIk4S4qV-0" value="4. calendrier" style="strokeWidth=1;shadow=0;dashed=0;align=center;html=1;shape=mxgraph.mockup.containers.window;align=left;verticalAlign=top;spacingLeft=8;strokeColor2=#008cff;strokeColor3=#c4c4c4;fontColor=#666666;mainText=;fontSize=17;labelBackgroundColor=none;aspect=fixed;" vertex="1" parent="IAQC5l6bsOiNnB8kq8u3-1"><mxGeometry x="345.19" y="40" width="404.81" height="720" as="geometry"/></mxCell><mxCell id="ST9X2KhaqmIJzF6TcA_h-2" value="" style="rounded=0;whiteSpace=wrap;html=1;shadow=0;fontFamily=Open Sans;fontSource=https%3A%2F%2Ffonts.googleapis.com%2Fcss%3Ffamily%3DOpen%2BSans;fontSize=12;fontColor=#4D4D4D;strokeColor=#B5B5B5;fillColor=none;gradientColor=none;" parent="IAQC5l6bsOiNnB8kq8u3-1" vertex="1"><mxGeometry x="403" y="245" width="120" height="460" as="geometry"/></mxCell><mxCell id="ST9X2KhaqmIJzF6TcA_h-3" value="" style="rounded=0;whiteSpace=wrap;html=1;shadow=0;fontFamily=Open Sans;fontSource=https%3A%2F%2Ffonts.googleapis.com%2Fcss%3Ffamily%3DOpen%2BSans;fontSize=12;fontColor=#4D4D4D;strokeColor=#B5B5B5;fillColor=none;gradientColor=none;" parent="IAQC5l6bsOiNnB8kq8u3-1" vertex="1"><mxGeometry x="533" y="245" width="120" height="460" as="geometry"/></mxCell><mxCell id="ST9X2KhaqmIJzF6TcA_h-4" value="" style="rounded=0;whiteSpace=wrap;html=1;shadow=0;fontFamily=Open Sans;fontSource=https%3A%2F%2Ffonts.googleapis.com%2Fcss%3Ffamily%3DOpen%2BSans;fontSize=12;fontColor=#4D4D4D;strokeColor=#B5B5B5;fillColor=none;gradientColor=none;" parent="IAQC5l6bsOiNnB8kq8u3-1" vertex="1"><mxGeometry x="663" y="245" width="120" height="460" as="geometry"/></mxCell><mxCell id="ST9X2KhaqmIJzF6TcA_h-5" value="" style="rounded=0;whiteSpace=wrap;html=1;shadow=0;fontFamily=Open Sans;fontSource=https%3A%2F%2Ffonts.googleapis.com%2Fcss%3Ffamily%3DOpen%2BSans;fontSize=12;fontColor=#4D4D4D;strokeColor=#B5B5B5;fillColor=none;gradientColor=none;" parent="IAQC5l6bsOiNnB8kq8u3-1" vertex="1"><mxGeometry x="793" y="245" width="120" height="460" as="geometry"/></mxCell><mxCell id="ST9X2KhaqmIJzF6TcA_h-6" value="" style="rounded=0;whiteSpace=wrap;html=1;shadow=0;fontFamily=Open Sans;fontSource=https%3A%2F%2Ffonts.googleapis.com%2Fcss%3Ffamily%3DOpen%2BSans;fontSize=12;fontColor=#4D4D4D;strokeColor=#B5B5B5;fillColor=none;gradientColor=none;" parent="IAQC5l6bsOiNnB8kq8u3-1" vertex="1"><mxGeometry x="923" y="245" width="120" height="460" as="geometry"/></mxCell><mxCell id="ST9X2KhaqmIJzF6TcA_h-7" value="Lundi" style="rounded=0;whiteSpace=wrap;html=1;shadow=0;fontFamily=Open Sans;fontSource=https%3A%2F%2Ffonts.googleapis.com%2Fcss%3Ffamily%3DOpen%2BSans;fontSize=12;fontColor=#4D4D4D;strokeColor=#B5B5B5;fillColor=none;gradientColor=none;" parent="IAQC5l6bsOiNnB8kq8u3-1" vertex="1"><mxGeometry x="403" y="220" width="120" height="25" as="geometry"/></mxCell><mxCell id="ST9X2KhaqmIJzF6TcA_h-8" value="Mardi" style="rounded=0;whiteSpace=wrap;html=1;shadow=0;fontFamily=Open Sans;fontSource=https%3A%2F%2Ffonts.googleapis.com%2Fcss%3Ffamily%3DOpen%2BSans;fontSize=12;fontColor=#4D4D4D;strokeColor=#B5B5B5;fillColor=none;gradientColor=none;" parent="IAQC5l6bsOiNnB8kq8u3-1" vertex="1"><mxGeometry x="533" y="220" width="120" height="25" as="geometry"/></mxCell><mxCell id="ST9X2KhaqmIJzF6TcA_h-9" value="Mercredi" style="rounded=0;whiteSpace=wrap;html=1;shadow=0;fontFamily=Open Sans;fontSource=https%3A%2F%2Ffonts.googleapis.com%2Fcss%3Ffamily%3DOpen%2BSans;fontSize=12;fontColor=#4D4D4D;strokeColor=#B5B5B5;fillColor=none;gradientColor=none;" parent="IAQC5l6bsOiNnB8kq8u3-1" vertex="1"><mxGeometry x="663" y="220" width="120" height="25" as="geometry"/></mxCell><mxCell id="ST9X2KhaqmIJzF6TcA_h-10" value="Jeudi" style="rounded=0;whiteSpace=wrap;html=1;shadow=0;fontFamily=Open Sans;fontSource=https%3A%2F%2Ffonts.googleapis.com%2Fcss%3Ffamily%3DOpen%2BSans;fontSize=12;fontColor=#4D4D4D;strokeColor=#B5B5B5;fillColor=none;gradientColor=none;" parent="IAQC5l6bsOiNnB8kq8u3-1" vertex="1"><mxGeometry x="793" y="220" width="120" height="25" as="geometry"/></mxCell><mxCell id="ST9X2KhaqmIJzF6TcA_h-11" value="Vendredi" style="rounded=0;whiteSpace=wrap;html=1;shadow=0;fontFamily=Open Sans;fontSource=https%3A%2F%2Ffonts.googleapis.com%2Fcss%3Ffamily%3DOpen%2BSans;fontSize=12;fontColor=#4D4D4D;strokeColor=#B5B5B5;fillColor=none;gradientColor=none;" parent="IAQC5l6bsOiNnB8kq8u3-1" vertex="1"><mxGeometry x="923" y="220" width="120" height="25" as="geometry"/></mxCell><mxCell id="ST9X2KhaqmIJzF6TcA_h-12" value="&lt;font style=&quot;font-size: 15px&quot;&gt;Janvier 2022 - Semaine 1&lt;/font&gt;" style="rounded=0;whiteSpace=wrap;html=1;shadow=0;fontFamily=Open Sans;fontSource=https%3A%2F%2Ffonts.googleapis.com%2Fcss%3Ffamily%3DOpen%2BSans;fontSize=12;fontColor=#4D4D4D;strokeColor=#B5B5B5;fillColor=none;gradientColor=none;align=center;" parent="IAQC5l6bsOiNnB8kq8u3-1" vertex="1"><mxGeometry x="357.6" y="80" width="380" height="25" as="geometry"/></mxCell><mxCell id="ST9X2KhaqmIJzF6TcA_h-13" value="évènement 1" style="rounded=1;whiteSpace=wrap;html=1;shadow=0;fontFamily=Open Sans;fontSource=https%3A%2F%2Ffonts.googleapis.com%2Fcss%3Ffamily%3DOpen%2BSans;fontSize=15;fontColor=#4D4D4D;strokeColor=#B5B5B5;fillColor=none;gradientColor=none;align=center;arcSize=17;" parent="IAQC5l6bsOiNnB8kq8u3-1" vertex="1"><mxGeometry x="403" y="416" width="120" height="30" as="geometry"/></mxCell><mxCell id="ST9X2KhaqmIJzF6TcA_h-14" value="évènement 2" style="rounded=1;whiteSpace=wrap;html=1;shadow=0;fontFamily=Open Sans;fontSource=https%3A%2F%2Ffonts.googleapis.com%2Fcss%3Ffamily%3DOpen%2BSans;fontSize=15;fontColor=#4D4D4D;strokeColor=#B5B5B5;fillColor=none;gradientColor=none;align=center;arcSize=17;" parent="IAQC5l6bsOiNnB8kq8u3-1" vertex="1"><mxGeometry x="663" y="445" width="120" height="30" as="geometry"/></mxCell><mxCell id="ST9X2KhaqmIJzF6TcA_h-15" value="RDV 1" style="rounded=1;whiteSpace=wrap;html=1;shadow=0;fontFamily=Open Sans;fontSource=https%3A%2F%2Ffonts.googleapis.com%2Fcss%3Ffamily%3DOpen%2BSans;fontSize=15;fontColor=#4D4D4D;strokeColor=#B5B5B5;fillColor=none;gradientColor=none;align=center;arcSize=17;" parent="IAQC5l6bsOiNnB8kq8u3-1" vertex="1"><mxGeometry x="403" y="570" width="120" height="30" as="geometry"/></mxCell><mxCell id="ST9X2KhaqmIJzF6TcA_h-16" value="RDV 2" style="rounded=1;whiteSpace=wrap;html=1;shadow=0;fontFamily=Open Sans;fontSource=https%3A%2F%2Ffonts.googleapis.com%2Fcss%3Ffamily%3DOpen%2BSans;fontSize=15;fontColor=#4D4D4D;strokeColor=#B5B5B5;fillColor=none;gradientColor=none;align=center;arcSize=17;" parent="IAQC5l6bsOiNnB8kq8u3-1" vertex="1"><mxGeometry x="793" y="540" width="120" height="30" as="geometry"/></mxCell><mxCell id="ST9X2KhaqmIJzF6TcA_h-19" value="1" style="strokeWidth=1;shadow=0;dashed=0;align=left;html=1;shape=mxgraph.mockup.misc.ruler2;dx=19;rulerOrient=up;unitSize=10;fontColor=#999999;spacingLeft=15;align=left;verticalAlign=middle;spacingBottom=0;spacingTop=10;spacingRight=0;rotation=90;spacing=0;strokeColor=#999999;rounded=0;fontFamily=Open Sans;fontSource=https%3A%2F%2Ffonts.googleapis.com%2Fcss%3Ffamily%3DOpen%2BSans;fontSize=15;fillColor=none;gradientColor=none;" parent="IAQC5l6bsOiNnB8kq8u3-1" vertex="1"><mxGeometry x="150" y="460" width="460" height="30" as="geometry"/></mxCell><mxCell id="6FoFH6e3bTPLhSrf3D8Q-0" value="&amp;lt;&amp;lt;" style="strokeWidth=1;shadow=0;dashed=0;align=center;html=1;shape=mxgraph.mockup.forms.rrect;rSize=5;strokeColor=none;fontColor=#ffffff;fillColor=#66bbff;fontSize=16;fontStyle=1;" parent="IAQC5l6bsOiNnB8kq8u3-1" vertex="1"><mxGeometry x="360" y="120" width="120" height="30" as="geometry"/></mxCell><mxCell id="6FoFH6e3bTPLhSrf3D8Q-1" value="&amp;gt;&amp;gt;" style="strokeWidth=1;shadow=0;dashed=0;align=center;html=1;shape=mxgraph.mockup.forms.rrect;rSize=5;strokeColor=none;fontColor=#ffffff;fillColor=#66bbff;fontSize=16;fontStyle=1;" parent="IAQC5l6bsOiNnB8kq8u3-1" vertex="1"><mxGeometry x="620" y="120" width="120" height="30" as="geometry"/></mxCell></root></mxGraphModel></diagram><diagram name="5. gestion de tâches - élève" id="GJ2BCRj-hEo8QF4mj2_H"><mxGraphModel dx="1405" dy="794" grid="1" gridSize="10" guides="1" tooltips="1" connect="1" arrows="1" fold="1" page="1" pageScale="1" pageWidth="1100" pageHeight="850" background="none" math="0" shadow="0"><root><mxCell id="4c6GpM5NN8j8u-erCQ6T-0"/><mxCell id="4c6GpM5NN8j8u-erCQ6T-1" parent="4c6GpM5NN8j8u-erCQ6T-0"/><mxCell id="Us8cfBdTBHpRQdWc3oxF-0" value="5. gestion de tâches" style="strokeWidth=1;shadow=0;dashed=0;align=center;html=1;shape=mxgraph.mockup.containers.window;align=left;verticalAlign=top;spacingLeft=8;strokeColor2=#008cff;strokeColor3=#c4c4c4;fontColor=#666666;mainText=;fontSize=17;labelBackgroundColor=none;aspect=fixed;" vertex="1" parent="4c6GpM5NN8j8u-erCQ6T-1"><mxGeometry x="283.64" y="40" width="404.81" height="720" as="geometry"/></mxCell><mxCell id="4c6GpM5NN8j8u-erCQ6T-3" value="Création d'une nouvelle tâche pour moi-même" style="strokeWidth=1;shadow=0;dashed=0;align=center;html=1;shape=mxgraph.mockup.forms.anchor;fontSize=14;fontColor=#666666;align=left;resizeWidth=1;spacingLeft=0;" parent="4c6GpM5NN8j8u-erCQ6T-1" vertex="1"><mxGeometry x="342.05" y="130" width="160" height="20" as="geometry"/></mxCell><mxCell id="4c6GpM5NN8j8u-erCQ6T-4" value="" style="shape=line;strokeColor=#ddeeff;strokeWidth=2;html=1;resizeWidth=1;" parent="4c6GpM5NN8j8u-erCQ6T-1" vertex="1"><mxGeometry x="342.05" y="154" width="287.99999999999994" height="10" as="geometry"/></mxCell><mxCell id="vL2ScI1gZIEDWfBpb15_-0" value="Titre :" style="strokeWidth=1;shadow=0;dashed=0;align=center;html=1;shape=mxgraph.mockup.forms.anchor;fontSize=14;fontColor=#666666;align=left;resizeWidth=1;spacingLeft=0;" parent="4c6GpM5NN8j8u-erCQ6T-1" vertex="1"><mxGeometry x="366.05" y="280" width="160" height="20" as="geometry"/></mxCell><mxCell id="vL2ScI1gZIEDWfBpb15_-1" value="Refaire exercices de physique" style="strokeWidth=1;shadow=0;dashed=0;align=center;html=1;shape=mxgraph.mockup.forms.rrect;rSize=0;strokeColor=#999999;fontColor=#666666;align=left;spacingLeft=5;resizeWidth=1;fontSize=13;" parent="4c6GpM5NN8j8u-erCQ6T-1" vertex="1"><mxGeometry x="366.05" y="300" width="240" height="25" as="geometry"/></mxCell><mxCell id="vL2ScI1gZIEDWfBpb15_-2" value="Créer une tâche" style="strokeWidth=1;shadow=0;dashed=0;align=center;html=1;shape=mxgraph.mockup.forms.rrect;rSize=5;strokeColor=none;fontColor=#ffffff;fillColor=#66bbff;fontSize=20;fontStyle=1;" parent="4c6GpM5NN8j8u-erCQ6T-1" vertex="1"><mxGeometry x="366.04999999999995" y="550" width="241.95" height="60" as="geometry"/></mxCell><mxCell id="vL2ScI1gZIEDWfBpb15_-3" value="" style="strokeWidth=1;shadow=0;dashed=0;align=left;html=1;shape=mxgraph.mockup.forms.rrect;rSize=0;strokeColor=#999999;fontColor=#666666;align=left;spacingLeft=5;resizeWidth=1;" parent="4c6GpM5NN8j8u-erCQ6T-1" vertex="1"><mxGeometry x="366.05" y="378" width="240" height="60" as="geometry"/></mxCell><mxCell id="vL2ScI1gZIEDWfBpb15_-4" value="Description :" style="strokeWidth=1;shadow=0;dashed=0;align=center;html=1;shape=mxgraph.mockup.forms.anchor;fontSize=14;fontColor=#666666;align=left;resizeWidth=1;spacingLeft=0;" parent="4c6GpM5NN8j8u-erCQ6T-1" vertex="1"><mxGeometry x="366.05" y="358" width="160" height="20" as="geometry"/></mxCell><mxCell id="vL2ScI1gZIEDWfBpb15_-5" value="&lt;div style=&quot;text-align: justify; font-size: 13px;&quot;&gt;&lt;span style=&quot;font-size: 13px;&quot;&gt;&lt;font color=&quot;#666666&quot; style=&quot;font-size: 13px;&quot;&gt;Voici la description de la tâche dont le&lt;/font&gt;&lt;/span&gt;&lt;/div&gt;&lt;div style=&quot;text-align: justify; font-size: 13px;&quot;&gt;&lt;span style=&quot;font-size: 13px;&quot;&gt;&lt;font color=&quot;#666666&quot; style=&quot;font-size: 13px;&quot;&gt;titre est &quot;Refaire exercices de physique&quot;&lt;/font&gt;&lt;/span&gt;&lt;/div&gt;" style="text;html=1;align=center;verticalAlign=middle;resizable=0;points=[];autosize=1;strokeColor=none;fillColor=none;fontSize=13;" parent="4c6GpM5NN8j8u-erCQ6T-1" vertex="1"><mxGeometry x="361.05" y="379" width="250" height="40" as="geometry"/></mxCell><mxCell id="vL2ScI1gZIEDWfBpb15_-6" value="Date d'échéance :" style="strokeWidth=1;shadow=0;dashed=0;align=center;html=1;shape=mxgraph.mockup.forms.anchor;fontSize=14;fontColor=#666666;align=left;resizeWidth=1;spacingLeft=0;" parent="4c6GpM5NN8j8u-erCQ6T-1" vertex="1"><mxGeometry x="366.05" y="463" width="160" height="20" as="geometry"/></mxCell><mxCell id="vL2ScI1gZIEDWfBpb15_-7" value="26 / 02 / 2022" style="strokeWidth=1;shadow=0;dashed=0;align=center;html=1;shape=mxgraph.mockup.forms.rrect;rSize=0;strokeColor=#999999;fontColor=#666666;align=left;spacingLeft=5;resizeWidth=1;fontSize=13;" parent="4c6GpM5NN8j8u-erCQ6T-1" vertex="1"><mxGeometry x="366.05" y="483" width="240" height="25" as="geometry"/></mxCell></root></mxGraphModel></diagram><diagram name="5. gestion de tâches - tuteur" id="v6LBNoA9QtkJmu42N6pH"><mxGraphModel dx="1405" dy="794" grid="1" gridSize="10" guides="1" tooltips="1" connect="1" arrows="1" fold="1" page="1" pageScale="1" pageWidth="1100" pageHeight="850" background="none" math="0" shadow="0"><root><mxCell id="ht_CV7n-sVzkrv21czA--0"/><mxCell id="ht_CV7n-sVzkrv21czA--1" parent="ht_CV7n-sVzkrv21czA--0"/><mxCell id="ht_CV7n-sVzkrv21czA--2" value="5. gestion de tâches" style="strokeWidth=1;shadow=0;dashed=0;align=center;html=1;shape=mxgraph.mockup.containers.window;align=left;verticalAlign=top;spacingLeft=8;strokeColor2=#008cff;strokeColor3=#c4c4c4;fontColor=#666666;mainText=;fontSize=17;labelBackgroundColor=none;aspect=fixed;" vertex="1" parent="ht_CV7n-sVzkrv21czA--1"><mxGeometry x="283.64" y="40" width="404.81" height="720" as="geometry"/></mxCell><mxCell id="ht_CV7n-sVzkrv21czA--3" value="&lt;span&gt;Création d'une nouvelle tâche pour un élève suivi&lt;/span&gt;" style="strokeWidth=1;shadow=0;dashed=0;align=center;html=1;shape=mxgraph.mockup.forms.anchor;fontSize=14;fontColor=#666666;align=left;resizeWidth=1;spacingLeft=0;" vertex="1" parent="ht_CV7n-sVzkrv21czA--1"><mxGeometry x="342.05" y="130" width="160" height="20" as="geometry"/></mxCell><mxCell id="ht_CV7n-sVzkrv21czA--4" value="" style="shape=line;strokeColor=#ddeeff;strokeWidth=2;html=1;resizeWidth=1;" vertex="1" parent="ht_CV7n-sVzkrv21czA--1"><mxGeometry x="342.05" y="154" width="287.99999999999994" height="10" as="geometry"/></mxCell><mxCell id="ht_CV7n-sVzkrv21czA--5" value="Titre :" style="strokeWidth=1;shadow=0;dashed=0;align=center;html=1;shape=mxgraph.mockup.forms.anchor;fontSize=14;fontColor=#666666;align=left;resizeWidth=1;spacingLeft=0;" vertex="1" parent="ht_CV7n-sVzkrv21czA--1"><mxGeometry x="366.05" y="280" width="160" height="20" as="geometry"/></mxCell><mxCell id="ht_CV7n-sVzkrv21czA--6" value="Refaire exercices de physique" style="strokeWidth=1;shadow=0;dashed=0;align=center;html=1;shape=mxgraph.mockup.forms.rrect;rSize=0;strokeColor=#999999;fontColor=#666666;align=left;spacingLeft=5;resizeWidth=1;fontSize=13;" vertex="1" parent="ht_CV7n-sVzkrv21czA--1"><mxGeometry x="366.05" y="300" width="240" height="25" as="geometry"/></mxCell><mxCell id="ht_CV7n-sVzkrv21czA--7" value="Créer une tâche" style="strokeWidth=1;shadow=0;dashed=0;align=center;html=1;shape=mxgraph.mockup.forms.rrect;rSize=5;strokeColor=none;fontColor=#ffffff;fillColor=#66bbff;fontSize=20;fontStyle=1;" vertex="1" parent="ht_CV7n-sVzkrv21czA--1"><mxGeometry x="366.04999999999995" y="550" width="241.95" height="60" as="geometry"/></mxCell><mxCell id="ht_CV7n-sVzkrv21czA--8" value="" style="strokeWidth=1;shadow=0;dashed=0;align=left;html=1;shape=mxgraph.mockup.forms.rrect;rSize=0;strokeColor=#999999;fontColor=#666666;align=left;spacingLeft=5;resizeWidth=1;" vertex="1" parent="ht_CV7n-sVzkrv21czA--1"><mxGeometry x="366.05" y="378" width="240" height="60" as="geometry"/></mxCell><mxCell id="ht_CV7n-sVzkrv21czA--9" value="Description :" style="strokeWidth=1;shadow=0;dashed=0;align=center;html=1;shape=mxgraph.mockup.forms.anchor;fontSize=14;fontColor=#666666;align=left;resizeWidth=1;spacingLeft=0;" vertex="1" parent="ht_CV7n-sVzkrv21czA--1"><mxGeometry x="366.05" y="358" width="160" height="20" as="geometry"/></mxCell><mxCell id="ht_CV7n-sVzkrv21czA--10" value="&lt;div style=&quot;text-align: justify; font-size: 13px;&quot;&gt;&lt;span style=&quot;font-size: 13px;&quot;&gt;&lt;font color=&quot;#666666&quot; style=&quot;font-size: 13px;&quot;&gt;Voici la description de la tâche dont le&lt;/font&gt;&lt;/span&gt;&lt;/div&gt;&lt;div style=&quot;text-align: justify; font-size: 13px;&quot;&gt;&lt;span style=&quot;font-size: 13px;&quot;&gt;&lt;font color=&quot;#666666&quot; style=&quot;font-size: 13px;&quot;&gt;titre est &quot;Refaire exercices de physique&quot;&lt;/font&gt;&lt;/span&gt;&lt;/div&gt;" style="text;html=1;align=center;verticalAlign=middle;resizable=0;points=[];autosize=1;strokeColor=none;fillColor=none;fontSize=13;" vertex="1" parent="ht_CV7n-sVzkrv21czA--1"><mxGeometry x="361.05" y="379" width="250" height="40" as="geometry"/></mxCell><mxCell id="ht_CV7n-sVzkrv21czA--11" value="Date d'échéance :" style="strokeWidth=1;shadow=0;dashed=0;align=center;html=1;shape=mxgraph.mockup.forms.anchor;fontSize=14;fontColor=#666666;align=left;resizeWidth=1;spacingLeft=0;" vertex="1" parent="ht_CV7n-sVzkrv21czA--1"><mxGeometry x="366.05" y="463" width="160" height="20" as="geometry"/></mxCell><mxCell id="ht_CV7n-sVzkrv21czA--12" value="26 / 02 / 2022" style="strokeWidth=1;shadow=0;dashed=0;align=center;html=1;shape=mxgraph.mockup.forms.rrect;rSize=0;strokeColor=#999999;fontColor=#666666;align=left;spacingLeft=5;resizeWidth=1;fontSize=13;" vertex="1" parent="ht_CV7n-sVzkrv21czA--1"><mxGeometry x="366.05" y="483" width="240" height="25" as="geometry"/></mxCell><mxCell id="yCIX6iRqsYp8gWqWcXFn-0" value="Email de l'élève suivi :" style="strokeWidth=1;shadow=0;dashed=0;align=center;html=1;shape=mxgraph.mockup.forms.anchor;fontSize=14;fontColor=#666666;align=left;resizeWidth=1;spacingLeft=0;" vertex="1" parent="ht_CV7n-sVzkrv21czA--1"><mxGeometry x="366.05000000000007" y="190" width="160" height="20" as="geometry"/></mxCell><mxCell id="yCIX6iRqsYp8gWqWcXFn-1" value="&lt;font style=&quot;font-size: 12px&quot;&gt;eleve_n1@email.com&lt;/font&gt;" style="strokeWidth=1;shadow=0;dashed=0;align=center;html=1;shape=mxgraph.mockup.forms.comboBox;strokeColor=#999999;fillColor=#ddeeff;align=left;fillColor2=#aaddff;mainText=;fontColor=#666666;fontSize=17;spacingLeft=3;opacity=80;" vertex="1" parent="ht_CV7n-sVzkrv21czA--1"><mxGeometry x="366.0450000000001" y="210" width="241.95" height="30" as="geometry"/></mxCell></root></mxGraphModel></diagram></mxfile>